<?xml version="1.0" encoding="UTF-8" standalone="no"?>
<!-- Created with Inkscape (http://www.inkscape.org/) -->

<svg
   width="65.395264mm"
   height="94.106255mm"
   viewBox="0 0 65.395264 94.106255"
   version="1.1"
   id="svg1"
   xml:space="preserve"
   xmlns:inkscape="http://www.inkscape.org/namespaces/inkscape"
   xmlns:sodipodi="http://sodipodi.sourceforge.net/DTD/sodipodi-0.dtd"
   xmlns="http://www.w3.org/2000/svg"
   xmlns:svg="http://www.w3.org/2000/svg"><sodipodi:namedview
     id="namedview1"
     pagecolor="#ffffff"
     bordercolor="#000000"
     borderopacity="0.25"
     inkscape:showpageshadow="2"
     inkscape:pageopacity="0.0"
     inkscape:pagecheckerboard="0"
     inkscape:deskcolor="#d1d1d1"
     inkscape:document-units="mm"
     showguides="true" /><defs
     id="defs1" /><g
     inkscape:groupmode="layer"
     id="layer2"
     inkscape:label="Layer 2"
     transform="translate(-47.021649,-4.6382717)"><path
       style="opacity:1;fill:#23b3b8;fill-opacity:1;stroke:none;stroke-width:20.504;stroke-opacity:1"
       d="M 47.0528,98.73603 103.78418,41.619 c 2.82221,-3.00899 8.17883,-3.19409 8.63273,0.0939 v 56.97639 l -10.8346,-0.0527 V 83.85655 l -14.848749,14.82187 -14.33709,0.0517 29.185839,-29.16244 -0.0633,-10.33072 -39.899939,39.50756 z"
       id="path6"
       sodipodi:nodetypes="cccccccccccc" /><path
       style="opacity:1;fill:#aad4da;fill-opacity:1;stroke:none;stroke-width:20.504;stroke-opacity:1"
       d="M 112.41691,98.73603 55.685525,41.619 C 52.86332,38.61001 47.506698,38.42491 47.0528,41.7129 v 56.97639 l 10.834606,-0.0527 V 83.85655 l 14.848745,14.82187 14.33709,0.0517 -29.185833,-29.16244 0.06331,-10.33072 39.899943,39.50756 z"
       id="path2"
       sodipodi:nodetypes="cccccccccccc" /><path
       style="opacity:1;fill:#23b3b8;fill-opacity:1;stroke:none;stroke-width:7.8952;stroke-dasharray:none;stroke-opacity:1"
       d="m 79.827421,12.87337 c 17.03062,0.73695 24.679829,14.01886 24.638209,25.72143 2.02236,-1.24853 5.83049,-3.02026 7.89318,0 C 111.79024,13.85007 91.791121,4.4641503 80.030031,4.6416103 58.514581,4.3518403 46.469531,22.97959 47.041107,38.61914 c 1.218799,-2.21638 4.39367,-2.22827 7.886584,0 0.738454,-19.1983 14.93604,-25.35178 24.89973,-25.74577 z"
       id="path9"
       sodipodi:nodetypes="ccccccc" /></g></svg>
